<svg version="1.1" xmlns="http://www.w3.org/2000/svg" viewBox="0 0 1590.5 550.8488683552803" width="1590.5" height="550.8488683552803">
  <!-- svg-source:excalidraw -->
  
  <defs>
    <style class="style-fonts">
      @font-face {
        font-family: "Virgil";
        src: url("https://excalidraw.com/Virgil.woff2");
      }
      @font-face {
        font-family: "Cascadia";
        src: url("https://excalidraw.com/Cascadia.woff2");
      }
    </style>
  </defs>
  <g stroke-linecap="round" transform="translate(10 123) rotate(0 202 170.5)"><path d="M-0.76 -0.63 C81.85 0.19, 165.25 0.28, 403.36 -0.33 M0.06 0.33 C103.05 -0.54, 206.29 -0.88, 403.82 -0.04 M403.55 -0.67 C405.01 117.21, 404.93 237.18, 403.16 341.78 M404.26 0.05 C403.27 102.28, 403.2 206.21, 403.56 341.4 M403.64 341.35 C295.78 339.65, 188.04 340, -0.04 340.48 M404 341.37 C316.42 340.61, 229.74 340.46, 0.2 341.41 M-0.56 339.78 C0.8 241.55, -0.98 143.6, -0.37 0.93 M-0.01 340.57 C-1.7 213.17, -1.45 85.53, -0.22 0.63" stroke="#000000" stroke-width="1" fill="none"></path></g><g transform="translate(180 281) rotate(0 32 13)"><text x="32" y="18" font-family="Virgil, Segoe UI Emoji" font-size="20px" fill="#000000" text-anchor="middle" style="white-space: pre;" direction="ltr">Server</text></g><g stroke-linecap="round" transform="translate(1037 10) rotate(0 270.5 96)"><path d="M-0.37 -0.48 C142.23 0.81, 283.26 0.99, 540.64 0.14 M-0.03 -0.01 C174.78 -1.53, 349.3 -1.31, 541.18 0.16 M541.11 -1.27 C540.34 56.49, 539.09 110.92, 541.03 191.79 M540.25 -0.85 C540.91 42.98, 541.1 84.99, 540.68 192.02 M540.95 191.64 C399.16 192.57, 256.78 192.31, -0.67 192.5 M540.75 192.11 C391.93 193.43, 242.75 193.71, -0.04 192.08 M1.86 191.1 C-0.02 128.28, 0.25 65.03, 1.51 1.33 M-0.29 192.32 C0.12 119.14, -0.31 45.38, -0.8 -0.74" stroke="#000000" stroke-width="1" fill="none"></path></g><g transform="translate(1276.5 93.5) rotate(0 31 13)"><text x="31" y="18" font-family="Virgil, Segoe UI Emoji" font-size="20px" fill="#000000" text-anchor="middle" style="white-space: pre;" direction="ltr">Client1</text></g><g stroke-linecap="round" transform="translate(1038.5 215.5) rotate(0 271 92.5)"><path d="M0.37 -0.41 C131.56 1.05, 263.67 1.42, 542.18 0.09 M0.07 -0.26 C194.43 0.05, 389.31 0.24, 541.94 -0.14 M541.99 1.62 C540.84 47.42, 542.14 92.29, 540.4 185.79 M541.15 0.78 C539.95 57.4, 540.29 113.62, 541.63 184.68 M542.25 184.89 C362.38 183.65, 182.15 184.52, -0.19 185 M542.13 185 C343.89 185.89, 145.46 185.67, 0.14 184.83 M-0.82 185.46 C-2.27 147.82, -0.21 109.17, 1.69 -0.02 M0.1 185.92 C0.2 142.45, -0.27 97.27, 0.81 -0.72" stroke="#000000" stroke-width="1" fill="none"></path></g><g transform="translate(1274.5 295.5) rotate(0 35 13)"><text x="35" y="18" font-family="Virgil, Segoe UI Emoji" font-size="20px" fill="#000000" text-anchor="middle" style="white-space: pre;" direction="ltr">Client2</text></g><g stroke-linecap="round" transform="translate(290.75 233.25) rotate(0 78.5 31)"><path d="M0.08 0.4 C36.67 -2.02, 70.89 -1.35, 158.11 0.61 M-0.8 0.54 C41.81 -1.59, 81.66 -1.69, 156.9 -0.34 M158.99 0.73 C156.82 22.03, 156.92 46.42, 155.2 60.53 M157.05 -0.6 C155.76 14.25, 156.57 27.37, 156.81 61.35 M158.08 61.59 C102.86 61.5, 53.06 61.53, 1.71 63.64 M157.41 61.14 C117.67 63.93, 78.26 63.39, 0.36 61.04 M-1.98 63.95 C0.54 44.11, -0.84 28.02, -0.92 0.64 M-0.78 61.03 C0.67 50.41, -0.4 38.01, 0.25 0.7" stroke="#000000" stroke-width="1" fill="none"></path></g><g transform="translate(322.75 238.25) rotate(0 46 26)"><text x="46" y="18" font-family="Virgil, Segoe UI Emoji" font-size="20px" fill="#000000" text-anchor="middle" style="white-space: pre;" direction="ltr">Register </text><text x="46" y="44" font-family="Virgil, Segoe UI Emoji" font-size="20px" fill="#000000" text-anchor="middle" style="white-space: pre;" direction="ltr">Socket</text></g><g stroke-linecap="round"><g transform="translate(1026.75 191.84016163629212) rotate(0 -284.6089149784297 33.796723499011875)"><path d="M0.73 -0.62 C-94.1 10.41, -475.15 55.22, -569.95 66.6 M-0.35 1.67 C-94.72 12.88, -473.06 57.5, -567.73 68.21" stroke="#0b7285" stroke-width="1" fill="none"></path></g><g transform="translate(1026.75 191.84016163629212) rotate(0 -284.6089149784297 33.796723499011875)"><path d="M-541.94 53.2 C-546.43 59.41, -550.51 61.64, -568.07 67.62 M-540.77 55.5 C-551.76 59.44, -561.82 65.92, -568.72 68.43" stroke="#0b7285" stroke-width="1" fill="none"></path></g><g transform="translate(1026.75 191.84016163629212) rotate(0 -284.6089149784297 33.796723499011875)"><path d="M-539.58 73.58 C-544.65 75.39, -549.24 73.2, -568.07 67.62 M-538.41 75.89 C-550.42 71.91, -561.39 70.49, -568.72 68.43" stroke="#0b7285" stroke-width="1" fill="none"></path></g></g><mask></mask><g stroke-linecap="round"><g transform="translate(1015.75 330.8601471594952) rotate(0 -278.121551573677 -32.66394943932744)"><path d="M-0.04 0.35 C-92.75 -10.13, -462.81 -53.04, -555.51 -63.88 M-1.53 -0.52 C-94.42 -11.25, -463.6 -55.18, -556.2 -65.67" stroke="#0b7285" stroke-width="1" fill="none"></path></g><g transform="translate(1015.75 330.8601471594952) rotate(0 -278.121551573677 -32.66394943932744)"><path d="M-526.43 -71.78 C-536.61 -70.48, -548.59 -68.13, -554.52 -64.74 M-526.42 -72.77 C-537.04 -71.29, -546.41 -68.78, -556.46 -64.8" stroke="#0b7285" stroke-width="1" fill="none"></path></g><g transform="translate(1015.75 330.8601471594952) rotate(0 -278.121551573677 -32.66394943932744)"><path d="M-528.81 -51.4 C-537.95 -57.49, -549.07 -62.55, -554.52 -64.74 M-528.8 -52.39 C-538.45 -57.59, -547.05 -61.77, -556.46 -64.8" stroke="#0b7285" stroke-width="1" fill="none"></path></g></g><mask></mask><g transform="translate(640.75 235.25) rotate(0 193 26)"><text x="0" y="18" font-family="Virgil, Segoe UI Emoji" font-size="20px" fill="#0b7285" text-anchor="start" style="white-space: pre;" direction="ltr">Server listens for first time connection</text><text x="0" y="44" font-family="Virgil, Segoe UI Emoji" font-size="20px" fill="#0b7285" text-anchor="start" style="white-space: pre;" direction="ltr">from socket and register clients (1)</text></g><g stroke-linecap="round" transform="translate(900.75 77.75) rotate(0 78 24.5)"><path d="M-0.67 1.47 C40.05 2.58, 79.97 2.29, 155.82 -1.45 M-0.65 -0.2 C50.6 -0.02, 102.63 0.56, 155.1 -0.13 M156.46 0.11 C155.03 11.7, 154.83 27.16, 154.96 48.57 M156.72 -0.13 C156.18 13.31, 156.11 28.51, 155.23 48.48 M157.26 50.95 C100.23 51.58, 47.9 48.43, -1.99 47.83 M155.05 48.6 C120.42 49.81, 85.29 50.06, -0.11 48.45 M-0.5 50.99 C2.1 30.71, -0.95 9.96, 0.1 -0.47 M-0.72 49.38 C0.53 34.81, 0.82 20.49, 0.06 -0.86" stroke="#000000" stroke-width="1" fill="none"></path></g><g transform="translate(945.25 89.75) rotate(0 33.5 13)"><text x="33.5" y="18" font-family="Virgil, Segoe UI Emoji" font-size="20px" fill="#000000" text-anchor="middle" style="white-space: pre;" direction="ltr">Socket</text></g><g stroke-linecap="round" transform="translate(890.75 344.75) rotate(0 78 24.5)"><path d="M-0.91 -0.75 C63.21 0.52, 123.74 0.58, 154.96 0.73 M0.55 -0.48 C51.98 1.31, 103.55 0.36, 155.88 0.33 M154.52 0.41 C157.12 14.25, 157.43 30.91, 154.62 47.52 M155.22 0.96 C156.98 11.54, 156.04 23.83, 155.31 48.52 M155.45 48.28 C103.62 49.72, 46.41 49.91, -0.39 47.45 M155.46 48.9 C117.24 49.01, 79.15 50.17, -0.81 49.38 M-0.31 50.06 C-0.72 39.11, -0.18 26.47, 0.27 1.74 M0.17 48.93 C0.28 33.79, 0.49 18.78, -0.67 0.06" stroke="#000000" stroke-width="1" fill="none"></path></g><g transform="translate(935.25 356.75) rotate(0 33.5 13)"><text x="33.5" y="18" font-family="Virgil, Segoe UI Emoji" font-size="20px" fill="#000000" text-anchor="middle" style="white-space: pre;" direction="ltr">Socket</text></g><g stroke-linecap="round"><g transform="translate(415.75 352.236467871061) rotate(0 237.10667975060645 9.77002591692576)"><path d="M-0.44 0.5 C78.76 3.38, 395.67 15.36, 474.65 18.19 M1.53 -0.29 C80.68 2.74, 395.56 16.69, 474.04 19.83" stroke="#c92a2a" stroke-width="1" fill="none"></path></g><g transform="translate(415.75 352.236467871061) rotate(0 237.10667975060645 9.77002591692576)"><path d="M446.27 29.97 C452.97 25.78, 459.07 22.74, 473.8 19.16 M445.84 29.25 C451.13 26.16, 457.62 26.1, 474.97 19.45" stroke="#c92a2a" stroke-width="1" fill="none"></path></g><g transform="translate(415.75 352.236467871061) rotate(0 237.10667975060645 9.77002591692576)"><path d="M447.14 9.47 C453.77 10.51, 459.65 12.69, 473.8 19.16 M446.71 8.75 C451.9 9.89, 458.21 14.05, 474.97 19.45" stroke="#c92a2a" stroke-width="1" fill="none"></path></g></g><mask></mask><g stroke-linecap="round"><g transform="translate(419.75 153.2965953299872) rotate(0 235.12748623730616 -25.781269727256756)"><path d="M0.51 -0.52 C78.53 -9.55, 390.43 -44.82, 468.84 -53.38 M-0.69 1.82 C77.63 -7.1, 392.37 -42.77, 470.94 -52.02" stroke="#c92a2a" stroke-width="1" fill="none"></path></g><g transform="translate(419.75 153.2965953299872) rotate(0 235.12748623730616 -25.781269727256756)"><path d="M443.24 -40.53 C453.04 -41.88, 465.05 -49.13, 468.94 -52.83 M443.87 -39.47 C449.67 -41.7, 455.69 -44.39, 470.78 -51.2" stroke="#c92a2a" stroke-width="1" fill="none"></path></g><g transform="translate(419.75 153.2965953299872) rotate(0 235.12748623730616 -25.781269727256756)"><path d="M440.89 -60.92 C451.66 -55, 464.51 -54.98, 468.94 -52.83 M441.52 -59.86 C447.73 -57.82, 454.23 -56.25, 470.78 -51.2" stroke="#c92a2a" stroke-width="1" fill="none"></path></g></g><mask></mask><g transform="translate(580.8229804366572 95.24464518178729) rotate(351.6070748126075 61.5 13)"><text x="0" y="18" font-family="Virgil, Segoe UI Emoji" font-size="20px" fill="#c92a2a" text-anchor="start" style="white-space: pre;" direction="ltr">Sends tasks</text></g><g transform="translate(570.2188108569226 328.74902628924156) rotate(3.5763343749971566 61.5 13)"><text x="0" y="18" font-family="Virgil, Segoe UI Emoji" font-size="20px" fill="#c92a2a" text-anchor="start" style="white-space: pre;" direction="ltr">Sends tasks</text></g><g stroke-linecap="round"><g transform="translate(1258.75 309.25) rotate(0 -102.29059524424378 28.948282446265125)"><path d="M0.58 0.03 C-33.68 9.67, -171.06 48.18, -205.16 57.93 M-0.57 -1 C-34.52 8.74, -169.01 48.81, -203.06 58.9" stroke="#5f3dc4" stroke-width="1" fill="none"></path></g><g transform="translate(1258.75 309.25) rotate(0 -102.29059524424378 28.948282446265125)"><path d="M-178.91 39.1 C-188.84 47.04, -195.99 51.59, -203.9 57.61 M-178.27 41.2 C-186.54 45.68, -194.52 51.25, -202.85 59.06" stroke="#5f3dc4" stroke-width="1" fill="none"></path></g><g transform="translate(1258.75 309.25) rotate(0 -102.29059524424378 28.948282446265125)"><path d="M-173.07 58.77 C-184.98 60.13, -194.09 58.06, -203.9 57.61 M-172.43 60.87 C-182.67 59.22, -192.45 58.72, -202.85 59.06" stroke="#5f3dc4" stroke-width="1" fill="none"></path></g></g><mask></mask><g transform="translate(1095.75 65.25) rotate(0 87.5 13)"><text x="0" y="18" font-family="Virgil, Segoe UI Emoji" font-size="20px" fill="#5f3dc4" text-anchor="start" style="white-space: pre;" direction="ltr">Waiting for tasks</text></g><g stroke-linecap="round"><g transform="translate(1277.75 106.25) rotate(0 -108.57439519910133 0.26473526841277817)"><path d="M-0.7 -1.04 C-37.03 -0.86, -181.46 0.21, -217.57 0.36 M1.14 1.02 C-35.36 1.42, -181.81 1.64, -218.29 1.56" stroke="#5f3dc4" stroke-width="1" fill="none"></path></g><g transform="translate(1277.75 106.25) rotate(0 -108.57439519910133 0.26473526841277817)"><path d="M-191.84 -7.98 C-200.73 -4.26, -211.11 -1.94, -218.75 -0.08 M-191.04 -7.75 C-196.82 -6.63, -203.19 -3.94, -218.94 1.73" stroke="#5f3dc4" stroke-width="1" fill="none"></path></g><g transform="translate(1277.75 106.25) rotate(0 -108.57439519910133 0.26473526841277817)"><path d="M-191.83 12.54 C-200.6 9.35, -210.97 4.75, -218.75 -0.08 M-191.04 12.77 C-196.87 8.93, -203.25 6.66, -218.94 1.73" stroke="#5f3dc4" stroke-width="1" fill="none"></path></g></g><mask></mask><g transform="translate(1069.4039101427072 300.7257222592773) rotate(342.07208023799274 87.5 13)"><text x="0" y="18" font-family="Virgil, Segoe UI Emoji" font-size="20px" fill="#5f3dc4" text-anchor="start" style="white-space: pre;" direction="ltr">Waiting for tasks</text></g><g stroke-linecap="round" transform="translate(20.75 370.25) rotate(0 79.5 40)"><path d="M1.76 -0.2 C42.57 -1.32, 84.08 -0.23, 159.8 1.87 M0.21 -0.34 C59.64 0.89, 119.53 0.4, 158.4 -0.04 M157.25 0.56 C157.46 16.04, 158.91 35.17, 157.14 80.7 M158.44 0.51 C160.1 23.96, 158.47 47.2, 159.66 79.36 M160.97 78.64 C112.07 80.04, 67.23 81.5, -0.29 81.46 M158.35 80.11 C121.34 81.21, 83.98 80.11, -0.96 79.7 M-1.07 78.64 C-0.9 62.14, 0.13 45.45, 0.96 -1.16 M-0.73 80.08 C1.1 62.21, 0.63 43.91, 0.81 0.63" stroke="#000000" stroke-width="1" fill="none"></path></g><g transform="translate(59.75 397.75) rotate(0 40.5 13)"><text x="40.5" y="18" font-family="Virgil, Segoe UI Emoji" font-size="20px" fill="#000000" text-anchor="middle" style="white-space: pre;" direction="ltr">Web App</text></g><g transform="translate(554.6517785032992 514.1831776303779) rotate(0.16584540247662338 230 13)"><text x="0" y="18" font-family="Virgil, Segoe UI Emoji" font-size="20px" fill="#087f5b" text-anchor="start" style="white-space: pre;" direction="ltr">Respond to task from server (POST Request)</text></g><g stroke-linecap="round" transform="translate(221.75 366.25) rotate(0 90 42)"><path d="M1.84 -0.29 C35.47 -0.77, 71.72 -2.16, 179.12 -1.93 M0.17 0.05 C66.56 -0.14, 133.71 0.24, 180.94 0.67 M180.97 1.32 C179.35 20.17, 181.4 36.18, 178.2 85.29 M179.12 0.53 C179.63 27.16, 179.2 54.88, 179.33 84.34 M179.76 83.91 C118.93 84.41, 56.96 84.97, -0.09 85.93 M180.81 84.36 C119.07 84.62, 59.44 85.09, -0.04 84.33 M-0.15 82.98 C2.55 52.11, 0.36 19.62, -0.36 -1.78 M0.91 84.26 C-0.69 57.3, 0.81 28.6, 0.79 -0.42" stroke="#000000" stroke-width="1" fill="none"></path></g><g transform="translate(259.25 395.75) rotate(0 52.5 13)"><text x="52.5" y="18" font-family="Virgil, Segoe UI Emoji" font-size="20px" fill="#000000" text-anchor="middle" style="white-space: pre;" direction="ltr">REST API</text></g><g stroke-linecap="round"><g transform="translate(1072.75 407.25) rotate(0 -334.82454465989025 49.70520119669868)"><path d="M0.39 -0.37 C-50.27 16.16, -192.08 99.33, -303.67 99.99 C-415.27 100.66, -608.33 19.44, -669.18 3.6 M-0.86 -1.6 C-51.2 14.96, -190.05 99.95, -301.58 101 C-413.11 102.06, -608.9 21.06, -670.04 4.71" stroke="#087f5b" stroke-width="1" fill="none"></path></g><g transform="translate(1072.75 407.25) rotate(0 -334.82454465989025 49.70520119669868)"><path d="M-640.66 1.85 C-651.46 3.9, -660.18 4.87, -668.43 4.18 M-639.32 3.7 C-650.23 3.04, -659.44 3.57, -670.69 3.75" stroke="#087f5b" stroke-width="1" fill="none"></path></g><g transform="translate(1072.75 407.25) rotate(0 -334.82454465989025 49.70520119669868)"><path d="M-647.09 21.34 C-655.95 17.04, -662.58 11.68, -668.43 4.18 M-645.75 23.19 C-654.59 16.29, -661.74 10.57, -670.69 3.75" stroke="#087f5b" stroke-width="1" fill="none"></path></g></g><mask></mask></svg>